<svg xmlns="http://www.w3.org/2000/svg" width="25.467" height="22.482" viewBox="0 0 25.467 22.482"><defs><style>.a{fill:#ffc573;}</style></defs><path class="a" d="M24.678,14.5,17.167,2.461a5.224,5.224,0,0,0-8.867,0L.789,14.5a5.224,5.224,0,0,0,4.434,7.984H20.244A5.224,5.224,0,0,0,24.678,14.5ZM20.244,20.99H5.223a3.731,3.731,0,0,1-3.168-5.7L9.566,3.251a3.732,3.732,0,0,1,6.335,0l7.511,12.037a3.731,3.731,0,0,1-3.168,5.7Zm0,0"/><path class="a" d="M71.651,61.057a2.24,2.24,0,0,0-3.8,0L60.337,73.094a2.239,2.239,0,0,0,1.9,3.42H77.26a2.239,2.239,0,0,0,1.9-3.42ZM70.5,73.479H69V71.987H70.5Zm0-2.984H69V65.223H70.5Zm0,0" transform="translate(-57.016 -57.016)"/></svg>