<svg xmlns="http://www.w3.org/2000/svg" width="31.468" height="22" viewBox="0 0 31.468 22"><defs><style>.a{fill:#7c243c;}</style></defs><g transform="translate(0 -75.55)"><g transform="translate(0 75.55)"><g transform="translate(0 0)"><path class="a" d="M31.424,87.618c-.113-.815-.952-1.466-2.525-1.942a17.886,17.886,0,0,0-4.637-.652V78.338a.585.585,0,0,0-.132-.376c-.207-.727-1.046-1.316-2.5-1.754a18.655,18.655,0,0,0-5.188-.658,18.109,18.109,0,0,0-5.132.658c-1.134.351-2.494,1-2.494,2.124a1.154,1.154,0,0,0,.019.207L8.9,81.4A7.5,7.5,0,1,0,12.231,94.58a18.635,18.635,0,0,0,4.017.439c.32,1.736,4.079,2.531,7.588,2.531a17.964,17.964,0,0,0,5.138-.67c1.14-.351,2.494-1.009,2.494-2.13V87.863A.649.649,0,0,0,31.424,87.618ZM11.686,77.4a16.926,16.926,0,0,1,4.762-.608,17.527,17.527,0,0,1,4.825.608c1.36.414,1.654.84,1.654.927s-.295.52-1.661.927a17.688,17.688,0,0,1-4.819.608A17.2,17.2,0,0,1,11.83,79.3c-1.347-.388-1.723-.821-1.754-.959,0-.013,0-.019-.006-.019C10.076,78.238,10.364,77.812,11.686,77.4ZM23.009,79.9v1.6a.507.507,0,0,0-.081.3c0,.081-.295.514-1.66.927a17.737,17.737,0,0,1-4.825.608,17.927,17.927,0,0,1-4.267-.47c-.019-.006-.031-.006-.05-.013a7.4,7.4,0,0,0-1.961-1.109L10.12,79.98a6.942,6.942,0,0,0,1.353.52,18.521,18.521,0,0,0,4.969.608,18.577,18.577,0,0,0,5.182-.658A6.792,6.792,0,0,0,23.009,79.9ZM11.7,93.377A6.245,6.245,0,1,1,7.5,82.512a6.424,6.424,0,0,1,1.855.276,6.3,6.3,0,0,1,4.273,4.706,6.553,6.553,0,0,1,.125,1.259A6.231,6.231,0,0,1,11.7,93.377Zm1.592.138a7.566,7.566,0,0,0,1.2-2.062c.533.044,1.1.075,1.673.081v.113l.031,2.124A19.734,19.734,0,0,1,13.3,93.515Zm1.667-5.5c.37.025.752.038,1.14.044,0,.013.006.031.006.044l.038,2.174q-.667-.009-1.3-.056a7.7,7.7,0,0,0,.144-1.466A5.888,5.888,0,0,0,14.963,88.013Zm1.541-1.2h-.056c-.6,0-1.184-.025-1.723-.063A7.429,7.429,0,0,0,13.6,84.416a22.569,22.569,0,0,0,2.839.182,18.656,18.656,0,0,0,5.188-.658,8.055,8.055,0,0,0,1.379-.564v1.66C20.315,85.112,17.532,85.676,16.5,86.81Zm.84.965c.063-.175.52-.583,1.8-.946a17.2,17.2,0,0,1,4.486-.533h.081a17.561,17.561,0,0,1,4.825.6c1.322.4,1.635.8,1.654.909v.006c-.006.094-.32.526-1.711.94a17.422,17.422,0,0,1-4.768.589,17.691,17.691,0,0,1-4.549-.539,3.309,3.309,0,0,1-1.8-.915A.53.53,0,0,0,17.344,87.775Zm12.87,6.974c0,.088-.282.52-1.61.934a16.76,16.76,0,0,1-4.768.614,17.051,17.051,0,0,1-4.756-.6c-1.328-.407-1.6-.827-1.6-.921v-.013l-.031-1.811a15.319,15.319,0,0,0,6.26,1.1A18.483,18.483,0,0,0,28.88,93.4a7.3,7.3,0,0,0,1.335-.551Zm-.056-3.471c0,.088-.288.514-1.642.927a17.3,17.3,0,0,1-4.806.6c-3.44,0-5.771-.771-6.285-1.379l-.013-.539-.025-1.435A7.3,7.3,0,0,0,18.817,90a18.883,18.883,0,0,0,4.888.589,18.755,18.755,0,0,0,5.119-.639,7.171,7.171,0,0,0,1.385-.551v1.61h.006C30.215,91.09,30.158,91.184,30.158,91.278Z" transform="translate(0 -75.55)"/></g></g><g transform="translate(2.964 84.313)"><path class="a" d="M54.963,223.192a.628.628,0,0,0-.808-.363v-.006a3.2,3.2,0,0,1-3.409-.733,2.063,2.063,0,0,1-.445-.57h3.221a.627.627,0,0,0,0-1.253H49.844a2.535,2.535,0,0,1-.019-.689h4.023a.627.627,0,1,0,0-1.253H50.195a3.694,3.694,0,0,1,.545-.739,3.2,3.2,0,0,1,3.409-.721A.625.625,0,0,0,54.6,215.7a4.452,4.452,0,0,0-4.75,1.009,4.306,4.306,0,0,0-1.034,1.623h-.89a.627.627,0,0,0,0,1.253h.627a4.222,4.222,0,0,0,.013.689h-.639a.627.627,0,0,0,0,1.253h.959a4.212,4.212,0,0,0,.965,1.46A4.449,4.449,0,0,0,54.6,224,.628.628,0,0,0,54.963,223.192Z" transform="translate(-47.3 -215.4)"/></g></g></svg>