<svg xmlns="http://www.w3.org/2000/svg" width="24" height="24" viewBox="0 0 24 24"><defs><style>.a{fill:#484c4d;}</style></defs><path class="a" d="M.938,24a.938.938,0,0,1-.869-1.289L2.2,17.446A10.368,10.368,0,0,1,0,11.062,10.574,10.574,0,0,1,3.545,3.211,12.462,12.462,0,0,1,12,0a12.462,12.462,0,0,1,8.455,3.211A10.574,10.574,0,0,1,24,11.062a10.41,10.41,0,0,1-1.9,5.982.938.938,0,1,1-1.537-1.074,8.544,8.544,0,0,0,1.566-4.908C22.125,6,17.583,1.875,12,1.875S1.875,6,1.875,11.062a8.57,8.57,0,0,0,2.112,5.614.937.937,0,0,1,.156.96l-1.47,3.637,4.282-1.887a.938.938,0,0,1,.746,0,11.061,11.061,0,0,0,9.235-.3.938.938,0,1,1,.849,1.672,12.945,12.945,0,0,1-10.438.5L1.316,23.92A.937.937,0,0,1,.938,24Zm12-8.766V10.172a.938.938,0,0,0-1.875,0v5.062a.938.938,0,1,0,1.875,0ZM12,6a.937.937,0,0,0-.937.938h0a.938.938,0,0,0,1.875,0h0A.937.937,0,0,0,12,6Z"/></svg>